<svg width="32" height="33" viewBox="0 0 32 33" fill="none" xmlns="http://www.w3.org/2000/svg">
<path d="M11.9982 21.9429C11.5676 21.9434 11.1475 21.8098 10.7963 21.5605C10.4451 21.3111 10.1802 20.9585 10.0386 20.5517L9.24663 18.1205C9.11091 17.7074 8.90545 17.3206 8.63916 16.9769C8.54054 16.8501 8.43382 16.7298 8.31969 16.6167C7.89731 16.1926 7.38197 15.8727 6.81453 15.6825L4.41394 14.9014C4.00441 14.7634 3.6481 14.5011 3.39466 14.1509C3.14122 13.8007 3.00328 13.3801 3.00006 12.9477C2.99684 12.5154 3.1285 12.0928 3.3767 11.7389C3.6249 11.3849 3.97726 11.1173 4.38469 10.9732L6.82354 10.1831C7.37102 9.98997 7.86773 9.6754 8.27645 9.26294C8.68518 8.85048 8.99531 8.35083 9.18363 7.80141L9.98233 5.3477C10.1229 4.93101 10.3924 4.5699 10.7518 4.3167C11.1048 4.07324 11.5234 3.94287 11.9521 3.94287C12.3808 3.94287 12.7994 4.07324 13.1524 4.3167C13.5018 4.56341 13.766 4.91268 13.9083 5.31619L14.7025 7.75639C14.8905 8.32235 15.2081 8.83651 15.63 9.25784C16.0519 9.67917 16.5664 9.99601 17.1324 10.1831L19.5375 10.962C19.9735 11.1013 20.353 11.3776 20.6196 11.7498C20.8671 12.0997 21 12.5177 21 12.9463C21 13.3749 20.8671 13.7929 20.6196 14.1428C20.3728 14.4926 20.0239 14.7576 19.6207 14.9014L17.1774 15.696C16.6134 15.8835 16.101 16.2003 15.6812 16.6212C15.2596 17.044 14.9416 17.5587 14.752 18.125L13.9713 20.5269C13.8239 20.94 13.5568 21.2997 13.2041 21.5602C12.852 21.8108 12.4303 21.9446 11.9982 21.9429ZM23.5042 30.9429C23.1434 30.9427 22.7914 30.8307 22.4968 30.6224C22.204 30.4147 21.9829 30.1211 21.8642 29.7824L21.3161 28.1065C21.2049 27.762 21.0133 27.4489 20.7572 27.1929C20.5 26.9368 20.1871 26.7434 19.843 26.6278L18.19 26.093C17.8396 25.9736 17.5362 25.7462 17.3234 25.4434C17.1667 25.2244 17.0632 24.9719 17.0212 24.7059C16.9792 24.44 16.9998 24.1679 17.0814 23.9113C17.163 23.6547 17.3033 23.4206 17.4912 23.2277C17.6792 23.0347 17.9095 22.8882 18.164 22.7998L19.8451 22.252C20.1786 22.1347 20.4809 21.9429 20.729 21.6912C20.9807 21.4342 21.1704 21.1232 21.2836 20.7819L21.8187 19.1321C21.9039 18.8742 22.0486 18.6399 22.241 18.4482C22.4334 18.2565 22.6683 18.1127 22.9266 18.0284C23.1849 17.9441 23.4594 17.9217 23.7279 17.963C23.9965 18.0043 24.2516 18.1081 24.4726 18.266C24.7676 18.4731 24.9897 18.7678 25.1074 19.1082L25.6533 20.7841C25.7682 21.1261 25.9611 21.4368 26.2168 21.6916C26.4725 21.9463 26.7839 22.1382 27.1265 22.252L28.7816 22.7911C29.0432 22.8725 29.2818 23.0146 29.4778 23.2059C29.6738 23.3972 29.8217 23.6323 29.9092 23.8917C29.9967 24.1512 30.0214 24.4277 29.9813 24.6985C29.9413 24.9694 29.8375 25.2269 29.6785 25.4499C29.4693 25.7445 29.1731 25.9663 28.8315 26.0843L27.159 26.6299C26.8154 26.7418 26.5034 26.9341 26.2491 27.1907C25.9938 27.4473 25.801 27.7592 25.6858 28.1022L25.1485 29.752C25.0283 30.1018 24.8009 30.4048 24.4986 30.6181C24.2085 30.8261 23.8613 30.9396 23.5042 30.9429Z" fill="url(#paint0_linear_81_1139)"/>
<defs>
<linearGradient id="paint0_linear_81_1139" x1="3" y1="3.94287" x2="32.1386" y2="5.26747" gradientUnits="userSpaceOnUse">
<stop stop-color="#7520F5"/>
<stop offset="0.505208" stop-color="#235CCE"/>
<stop offset="1" stop-color="#159195"/>
</linearGradient>
</defs>
</svg>
